<svg width="50" height="50" viewBox="0 0 40 40" fill="none" xmlns="http://www.w3.org/2000/svg">
    <g clip-path="url(#clip0_3937_14)">
        <path
            d="M18.0861 0.0781364C17.8283 0.117199 17.4455 0.164074 17.2267 0.187511C16.5861 0.265636 16.4298 0.296886 16.2658 0.343761C16.1798 0.375011 16.0002 0.406261 15.8595 0.429699C15.6486 0.453136 15.4845 0.484386 15.0627 0.593761C15.0236 0.601574 14.9923 0.609386 14.9845 0.625011C14.9689 0.632824 14.9064 0.648449 14.8439 0.664074C14.7814 0.679699 14.5861 0.734386 14.4142 0.781261C14.2423 0.828136 14.0705 0.875011 14.0236 0.882824C13.9845 0.890636 13.8986 0.929699 13.8517 0.960949C13.797 1.00001 13.7502 1.00782 13.7502 0.976574C13.7502 0.953136 13.6798 0.968761 13.5861 1.01564C13.5002 1.06251 13.3673 1.1172 13.297 1.13282C12.9923 1.20314 12.4298 1.4297 11.9377 1.6797C11.6564 1.82032 11.3986 1.92189 11.3752 1.89845C11.3517 1.8672 11.3283 1.89064 11.3283 1.93751C11.3283 1.9922 11.258 2.03126 11.1798 2.03126C11.0939 2.03126 11.008 2.06251 10.9845 2.10157C10.9611 2.14064 10.7345 2.27345 10.4923 2.39845C9.87516 2.71095 9.67985 2.82814 9.50016 2.98439C9.41422 3.06251 9.2736 3.14845 9.18766 3.17189C9.09391 3.20314 9.00797 3.25001 8.98454 3.27345C8.8986 3.39064 8.13297 3.90626 8.05485 3.90626C8.00797 3.90626 7.96891 3.94532 7.96891 3.98439C7.96891 4.03126 7.90641 4.09376 7.82048 4.12501C7.74235 4.15626 7.50016 4.33595 7.2736 4.53126C6.61735 5.10939 4.84391 6.87501 4.84391 6.95314C4.84391 6.9922 4.78141 7.07032 4.70329 7.12501C4.62516 7.1797 4.44548 7.39064 4.29704 7.59376C4.15641 7.8047 4.00797 7.96876 3.96891 7.96876C3.93766 7.96876 3.90641 8.02345 3.90641 8.08595C3.90641 8.14845 3.87516 8.20314 3.82829 8.20314C3.78922 8.20314 3.75016 8.25782 3.75016 8.32032C3.75016 8.39064 3.70329 8.46095 3.64079 8.48439C3.5861 8.50782 3.46891 8.66407 3.39079 8.82814C3.30485 9.00001 3.21891 9.14064 3.19547 9.14064C3.16422 9.14064 3.10172 9.2422 3.04704 9.37501C2.99235 9.50001 2.92985 9.60939 2.8986 9.60939C2.86735 9.60939 2.74235 9.82032 2.62516 10.0781C2.50016 10.3359 2.36735 10.5469 2.3361 10.5469C2.29704 10.5469 2.26579 10.5938 2.26579 10.6484C2.26579 10.7891 2.07829 11.1719 2.01579 11.1719C1.97672 11.1719 1.95329 11.2266 1.95329 11.2891C1.95329 11.3516 1.92204 11.4688 1.87516 11.5469C1.7736 11.7344 1.24235 12.9297 1.2111 13.0625C1.19547 13.1016 1.18766 13.1328 1.17204 13.1406C1.16422 13.1563 1.1486 13.2266 1.13297 13.2969C1.11735 13.375 1.05485 13.5859 0.984537 13.7656C0.8986 14.0234 0.656412 14.7969 0.5861 15.0781C0.507975 15.375 0.453287 15.6641 0.42985 15.8672C0.406412 16 0.359537 16.2266 0.320475 16.3594C0.281412 16.4922 0.250162 16.6563 0.250162 16.7188C0.250162 16.8359 0.226725 17.0234 0.101725 17.8125C0.0314124 18.3047 0.0235999 21.6563 0.0939124 22.1875C0.125162 22.3828 0.187662 22.7813 0.234537 23.0859C0.281412 23.3828 0.3361 23.7031 0.343912 23.7891C0.351725 23.8828 0.390787 24 0.422037 24.0547C0.453287 24.1094 0.4611 24.1719 0.437662 24.1953C0.414225 24.2188 0.42985 24.3047 0.468912 24.3828C0.515787 24.4609 0.562662 24.6406 0.578287 24.7813C0.601725 24.9219 0.61735 25.0391 0.625162 25.0391C0.632975 25.0391 0.6486 25.1016 0.672037 25.1719C0.687662 25.25 0.718912 25.375 0.734537 25.4453C0.757975 25.5234 0.7736 25.6016 0.789225 25.625C0.797037 25.6484 0.812662 25.6953 0.820475 25.7422C0.8361 25.8203 0.86735 25.9141 1.03922 26.3672C1.09391 26.4922 1.13297 26.625 1.14079 26.6563C1.1486 26.6953 1.15641 26.7266 1.17204 26.7344C1.17985 26.75 1.19547 26.8203 1.2111 26.8984C1.22672 26.9766 1.31266 27.2031 1.40641 27.4063C1.50797 27.6094 1.5861 27.8047 1.59391 27.8516C1.62516 28.0625 2.8361 30.3516 3.03141 30.5625C3.09391 30.6406 3.11735 30.7031 3.07829 30.7031C3.03922 30.7031 3.06266 30.75 3.13297 30.8047C3.25016 30.8984 3.90641 31.8203 3.98454 32.0078C4.00797 32.0547 4.15641 32.2422 4.32048 32.4141C4.48454 32.5938 4.59391 32.7344 4.56266 32.7344C4.53923 32.7344 4.63298 32.8516 4.78141 33C4.92204 33.1484 5.2736 33.5078 5.55485 33.8047C6.1486 34.4141 6.86735 35.1016 7.00798 35.1797C7.05485 35.2109 7.31266 35.0859 7.59391 34.8984C7.86735 34.7109 9.4611 33.8125 11.1408 32.8984C12.8205 31.9844 14.3205 31.1328 14.4767 31.0078C14.633 30.875 14.8673 30.5469 15.0158 30.25L15.2736 29.7266L15.297 28.2813L15.3283 26.8359L15.0548 26.4844C14.3127 25.5078 13.5236 23.9609 13.1173 22.6563C12.9142 21.9922 12.8127 21.7813 12.5705 21.5391C12.0158 20.9766 11.9923 20.875 11.9689 18.9063C11.9377 17 11.9767 16.75 12.3439 16.2109L12.5627 15.8906L12.5939 13.2734C12.6252 11.1094 12.6564 10.5859 12.7658 10.1953C13.5783 7.34376 16.2267 5.90626 20.4298 6.03907C21.8595 6.08595 22.3283 6.14845 23.3595 6.46095C25.3595 7.0547 26.7033 8.35157 27.2345 10.1953C27.3439 10.5781 27.3752 11.1563 27.4142 13.3203L27.4611 15.9766L27.6642 16.25C27.7736 16.3984 27.9064 16.6406 27.9611 16.7891C28.0783 17.1563 28.0783 20.3125 27.9533 20.7188C27.8439 21.1016 27.3595 21.6563 26.9377 21.8906C26.6564 22.0547 26.5939 22.1406 26.3752 22.7344C25.8908 24.0156 25.2814 25.1484 24.4923 26.2109L24.0548 26.8125L24.0783 28.3828C24.1017 29.9219 24.1095 29.9688 24.3127 30.3594C24.422 30.5703 24.6642 30.8828 24.8361 31.0391C25.047 31.2266 26.3517 31.9219 28.6173 33.0547C30.5158 34.0078 32.2345 34.8984 32.4455 35.0469C32.8595 35.3438 32.9299 35.3672 33.0002 35.1953C33.0236 35.1328 33.0783 35.0781 33.1174 35.0781C33.2111 35.0781 35.0783 33.2266 35.0783 33.1406C35.0783 33.1094 35.2345 32.9141 35.4299 32.7031C35.6252 32.5 35.7814 32.3047 35.7814 32.2734C35.7814 32.2422 35.8908 32.1094 36.0158 31.9688C36.1486 31.8281 36.2502 31.6875 36.2502 31.6719C36.2502 31.6484 36.297 31.5781 36.3517 31.5234C36.5861 31.2578 36.6252 31.1875 36.5861 31.1406C36.5627 31.1172 36.6017 31.0781 36.672 31.0469C36.7424 31.0234 36.797 30.9688 36.797 30.9375C36.797 30.8984 37.0549 30.4297 37.3752 29.8906C37.6955 29.3516 37.9377 28.9063 37.9142 28.9063C37.8986 28.9063 37.9689 28.75 38.0783 28.5625C38.1877 28.3672 38.2814 28.1563 38.2814 28.0938C38.2814 28.0234 38.3205 27.9688 38.3674 27.9688C38.4064 27.9688 38.4299 27.9453 38.4142 27.9063C38.3908 27.875 38.4455 27.7109 38.5314 27.5391C38.6174 27.3672 38.6955 27.1719 38.7111 27.1094C38.7267 27.0469 38.8517 26.6563 38.9924 26.25C39.3127 25.3047 39.3127 25.2969 39.3361 25.1563C39.3439 25.0938 39.3986 24.8828 39.4455 24.6875C39.6252 23.9766 39.797 23.0625 39.8908 22.2266C39.922 21.9688 39.9533 20.9688 39.9533 20C39.9533 18.4219 39.922 17.8125 39.8049 17.1875C39.7892 17.0781 39.7502 16.8359 39.7189 16.6406C39.6252 15.9688 39.6174 15.9063 39.4611 15.4063C39.422 15.2656 39.383 15.1484 39.3908 15.1328C39.3908 15.125 39.3517 14.9609 39.297 14.7656C39.2424 14.5703 39.1955 14.3594 39.1799 14.2969C39.1642 14.2344 39.1174 14.0938 39.0783 13.9844C39.0392 13.875 39.0002 13.7656 38.9924 13.7266C38.9689 13.5938 38.9455 13.5 38.8517 13.2813C38.508 12.4609 38.383 12.1172 38.422 12.0781C38.4455 12.0547 38.422 12.0313 38.3752 12.0313C38.3205 12.0313 38.2814 11.9609 38.2814 11.8828C38.2814 11.7969 38.2424 11.7031 38.2033 11.6797C38.1564 11.6484 38.1408 11.5938 38.1642 11.5547C38.1955 11.5156 38.1799 11.4844 38.1408 11.4844C38.0705 11.4844 37.9064 11.1328 37.8439 10.8672C37.8361 10.8047 37.797 10.7344 37.758 10.7109C37.6955 10.6641 37.4845 10.2969 37.2111 9.77345C37.133 9.62501 36.9924 9.41407 36.8986 9.31251C36.797 9.20314 36.7189 9.08595 36.7189 9.04689C36.7189 8.97657 36.4142 8.51564 36.3205 8.43751C36.297 8.41407 36.2111 8.28126 36.1408 8.14064C36.0705 8.00001 35.9533 7.85939 35.8908 7.83595C35.8361 7.81251 35.7814 7.75001 35.7814 7.68751C35.7814 7.63282 35.7033 7.53126 35.6095 7.46876C35.5158 7.39845 35.4611 7.34376 35.4845 7.34376C35.5549 7.34376 35.258 7.01564 34.0783 5.82032C33.5549 5.28126 33.0939 4.84376 33.0549 4.84376C33.0158 4.84376 32.9142 4.76564 32.8361 4.66407C32.758 4.57032 32.5705 4.39845 32.422 4.29689C32.2736 4.19532 32.1095 4.07032 32.0549 4.02345C31.8283 3.83595 31.7423 3.77345 31.3908 3.57032C31.1798 3.45314 31.0158 3.32032 31.0158 3.28126C31.0158 3.23439 30.9611 3.20314 30.8986 3.20314C30.8361 3.20314 30.7814 3.17189 30.7814 3.14064C30.7814 3.10939 30.6877 3.03907 30.5705 2.98439C30.172 2.8047 30.0002 2.69532 30.0002 2.64064C30.0002 2.60157 29.9611 2.57814 29.9142 2.57814C29.8673 2.57814 29.7267 2.50782 29.6017 2.41407C29.4767 2.32814 29.3752 2.27345 29.3752 2.28907C29.3752 2.31251 29.0002 2.14064 28.5392 1.90626C28.0705 1.6797 27.633 1.48439 27.5627 1.48439C27.4845 1.48439 27.422 1.45314 27.422 1.40626C27.422 1.3672 27.3986 1.33595 27.3673 1.34376C27.3283 1.35157 27.2267 1.32032 27.1408 1.26564C27.047 1.21876 26.9533 1.19532 26.9377 1.21095C26.9142 1.23439 26.7814 1.20314 26.633 1.14845C26.4845 1.08595 26.297 1.00782 26.2111 0.976574C26.0158 0.898449 25.0939 0.632824 24.883 0.593761C24.797 0.578136 24.7267 0.562511 24.7267 0.546886C24.7267 0.539074 24.6564 0.523449 24.5705 0.515636C24.4845 0.500011 24.2033 0.445324 23.9455 0.390636C23.6877 0.335949 23.422 0.281261 23.3595 0.273449C23.297 0.265636 23.0861 0.234386 22.8908 0.195324C22.6955 0.164074 22.3986 0.117199 22.2267 0.101574C21.6252 0.0390739 18.547 0.0234489 18.0861 0.0781364Z"
            fill="#556080" />
        <path
            d="M18.1641 6.1797C15.1406 6.62501 13.2891 8.12501 12.7656 10.5469C12.6875 10.9219 12.6562 11.711 12.6562 13.5078V15.9531L12.4453 16.2031C12.0547 16.6641 12.0312 16.8125 12.0312 18.75C12.0312 20.7891 12.0469 20.8594 12.6016 21.461C12.8594 21.7422 12.9766 21.961 13.0859 22.3438C13.4297 23.6172 14.2031 25.1875 15.0234 26.3125L15.3203 26.7266L15.2969 28.3438L15.2734 29.9609L15.0391 30.3828C14.9141 30.6094 14.6797 30.9063 14.5156 31.0469C14.3594 31.1797 12.8438 32.0469 11.1562 32.961C8.57031 34.375 7.10938 35.2266 7.10938 35.3438C7.10938 35.4063 8.39844 36.3594 9.10938 36.8203C11.6406 38.461 14.4219 39.4766 17.5234 39.8828C18.7422 40.0391 21.2422 40.0391 22.5156 39.875C26.0469 39.4297 29.2344 38.125 32.1328 35.9453L32.8203 35.4297L32.5625 35.211C32.4219 35.086 30.6719 34.1719 28.6719 33.1641C25.4219 31.5313 24.9922 31.2969 24.6719 30.9609C24.0781 30.3203 23.9844 29.9453 23.9844 28.2422V26.7969L24.4453 26.1797C25.2422 25.1016 26.0391 23.5703 26.4375 22.375C26.5469 22.0313 26.6172 21.9531 26.8828 21.836C27.0547 21.7578 27.3125 21.5625 27.4609 21.3985C27.9375 20.8672 27.9688 20.7188 27.9688 18.7891C27.9688 16.9297 27.9375 16.7031 27.5781 16.2422L27.3594 15.961L27.3281 13.2735C27.2969 10.6016 27.2969 10.586 27.0859 9.95314C26.7422 8.91408 26.1172 8.06251 25.2656 7.45314C24.3594 6.8047 23.1875 6.37501 21.7578 6.17189C21.1016 6.07814 18.8203 6.08595 18.1641 6.1797Z"
            fill="#E7ECED" />
    </g>
    <defs>
        <clipPath id="clip0_3937_14">
            <rect width="40" height="40" fill="white" />
        </clipPath>
    </defs>
</svg>